<svg xmlns="http://www.w3.org/2000/svg" viewBox="12 31 96 58" role="img" aria-label="8&amp;80"><title>8&amp;80</title><!-- Generated from services/voice/src/signup/mascot.ts by `npm run animate-mark`. Do not hand-edit. --><path d="M51 60C46 50 37 46 31 46C23 46 17 52 17 60C17 68 23 74 31 74C37 74 46 70 51 60Z" style="fill:#F4EDE1" fill-opacity="0"><animate attributeName="d" dur="2.8s" repeatCount="indefinite" calcMode="spline" keyTimes="0;0.5;1" keySplines="0.45 0 0.55 1;0.45 0 0.55 1" values="M51 60C46 50 37 46 31 46C23 46 17 52 17 60C17 68 23 74 31 74C37 74 46 70 51 60Z;M69 60C63 46 51 36 39 36C25 36 17 47 17 60C17 73 25 84 39 84C51 84 63 74 69 60Z;M51 60C46 50 37 46 31 46C23 46 17 52 17 60C17 68 23 74 31 74C37 74 46 70 51 60Z"/><animate attributeName="fill-opacity" dur="2.8s" repeatCount="indefinite" calcMode="spline" keyTimes="0;0.19;0.25;0.75;0.81;1" keySplines="0.45 0 0.55 1;0.45 0 0.55 1;0.45 0 0.55 1;0.45 0 0.55 1;0.45 0 0.55 1" values="1;1;0;0;1;1"/></path><path d="M51 60C57 46 69 36 81 36C95 36 103 47 103 60C103 73 95 84 81 84C69 84 57 74 51 60Z" style="fill:#F4EDE1" fill-opacity="0"><animate attributeName="d" dur="2.8s" repeatCount="indefinite" calcMode="spline" keyTimes="0;0.5;1" keySplines="0.45 0 0.55 1;0.45 0 0.55 1" values="M51 60C57 46 69 36 81 36C95 36 103 47 103 60C103 73 95 84 81 84C69 84 57 74 51 60Z;M69 60C74 50 83 46 89 46C97 46 103 52 103 60C103 68 97 74 89 74C83 74 74 70 69 60Z;M51 60C57 46 69 36 81 36C95 36 103 47 103 60C103 73 95 84 81 84C69 84 57 74 51 60Z"/><animate attributeName="fill-opacity" dur="2.8s" repeatCount="indefinite" calcMode="spline" keyTimes="0;0.25;0.31;0.69;0.75;1" keySplines="0.45 0 0.55 1;0.45 0 0.55 1;0.45 0 0.55 1;0.45 0 0.55 1;0.45 0 0.55 1" values="0;0;1;1;0;0"/></path><path d="M51 60C46 50 37 46 31 46C23 46 17 52 17 60C17 68 23 74 31 74C37 74 46 70 51 60C57 46 69 36 81 36C95 36 103 47 103 60C103 73 95 84 81 84C69 84 57 74 51 60Z" fill="none" style="stroke:#1A2920" stroke-width="7" stroke-linejoin="round"><animate attributeName="d" dur="2.8s" repeatCount="indefinite" calcMode="spline" keyTimes="0;0.5;1" keySplines="0.45 0 0.55 1;0.45 0 0.55 1" values="M51 60C46 50 37 46 31 46C23 46 17 52 17 60C17 68 23 74 31 74C37 74 46 70 51 60C57 46 69 36 81 36C95 36 103 47 103 60C103 73 95 84 81 84C69 84 57 74 51 60Z;M69 60C63 46 51 36 39 36C25 36 17 47 17 60C17 73 25 84 39 84C51 84 63 74 69 60C74 50 83 46 89 46C97 46 103 52 103 60C103 68 97 74 89 74C83 74 74 70 69 60Z;M51 60C46 50 37 46 31 46C23 46 17 52 17 60C17 68 23 74 31 74C37 74 46 70 51 60C57 46 69 36 81 36C95 36 103 47 103 60C103 73 95 84 81 84C69 84 57 74 51 60Z"/></path><circle cx="31" cy="60" r="5" style="fill:#F4EDE1"><animate attributeName="cx" dur="2.8s" repeatCount="indefinite" calcMode="spline" keyTimes="0;0.5;1" keySplines="0.45 0 0.55 1;0.45 0 0.55 1" values="31;89;31"/><animate attributeName="r" dur="2.8s" repeatCount="indefinite" calcMode="spline" keyTimes="0;0.2;0.25;0.3;0.7;0.75;0.8;1" keySplines="0.45 0 0.55 1;0.45 0 0.55 1;0.45 0 0.55 1;0.45 0 0.55 1;0.45 0 0.55 1;0.45 0 0.55 1;0.45 0 0.55 1" values="5;5;6;5;5;6;5;5"/></circle><circle cx="31" cy="60" r="5" style="fill:#1A2920" opacity="0"><animate attributeName="cx" dur="2.8s" repeatCount="indefinite" calcMode="spline" keyTimes="0;0.5;1" keySplines="0.45 0 0.55 1;0.45 0 0.55 1" values="31;89;31"/><animate attributeName="r" dur="2.8s" repeatCount="indefinite" calcMode="spline" keyTimes="0;0.2;0.25;0.3;0.7;0.75;0.8;1" keySplines="0.45 0 0.55 1;0.45 0 0.55 1;0.45 0 0.55 1;0.45 0 0.55 1;0.45 0 0.55 1;0.45 0 0.55 1;0.45 0 0.55 1" values="5;5;6;5;5;6;5;5"/><animate attributeName="opacity" dur="2.8s" repeatCount="indefinite" calcMode="spline" keyTimes="0;0.2;0.25;0.3;0.7;0.75;0.8;1" keySplines="0.45 0 0.55 1;0.45 0 0.55 1;0.45 0 0.55 1;0.45 0 0.55 1;0.45 0 0.55 1;0.45 0 0.55 1;0.45 0 0.55 1" values="1;1;0;1;1;0;1;1"/></circle></svg>